<?xml version="1.0" standalone="no"?>
<!DOCTYPE svg PUBLIC "-//W3C//DTD SVG 1.1//EN" "http://www.w3.org/Graphics/SVG/1.1/DTD/svg11.dtd" >
<svg xmlns="http://www.w3.org/2000/svg">
<metadata></metadata>
<defs>
<font id="markheavy" horiz-adv-x="1228" >
<font-face units-per-em="2048" ascent="1618" descent="-430" />
<missing-glyph horiz-adv-x="419" />
<glyph horiz-adv-x="0" />
<glyph horiz-adv-x="0" />
<glyph unicode="&#xd;" horiz-adv-x="419" />
<glyph unicode=" "  horiz-adv-x="419" />
<glyph unicode="&#x09;" horiz-adv-x="419" />
<glyph unicode="&#xa0;" horiz-adv-x="419" />
<glyph unicode="!" horiz-adv-x="615" d="M83 200q0 45 18.5 85.5t49 71t71.5 48.5t87 18q45 0 85.5 -18t71.5 -48.5t48.5 -71t17.5 -85.5q0 -46 -17.5 -87t-48.5 -72t-71.5 -49.5t-85.5 -18.5q-46 0 -87 18.5t-71.5 49.5t-49 72t-18.5 87zM96 1434h426l-41 -904h-344z" />
<glyph unicode="&#x22;" horiz-adv-x="1166" d="M143 764v711h365v-711h-365zM658 764v711h365v-711h-365z" />
<glyph unicode="#" horiz-adv-x="1487" d="M61 296l64 301h169l52 247h-169l65 301h169l61 289h330l-62 -289h188l61 289h330l-62 -289h169l-64 -301h-169l-52 -247h169l-64 -301h-170l-62 -296h-330l62 296h-187l-62 -296h-330l62 296h-168zM624 597h187l52 247h-187z" />
<glyph unicode="$" horiz-adv-x="1433" d="M98 189l178 292q50 -30 101.5 -55.5t107 -43.5t117 -29t131.5 -11q41 0 76.5 5t61 17t40.5 30t16 42q1 28 -16 46t-51 30t-84 21.5t-116 20.5l-60 10q-231 39 -340.5 138.5t-104.5 273.5q2 86 34 158t90 127.5t138.5 92.5t178.5 51v183h282v-184q65 -7 120 -20t105.5 -30 t98 -38t96.5 -45l-157 -294q-89 49 -189.5 81.5t-215.5 32.5q-42 0 -76.5 -5.5t-61 -16.5t-41 -28t-15.5 -40q-1 -30 22.5 -47.5t63.5 -29.5t92 -20t108 -18l53 -9q213 -37 324.5 -138t111.5 -256q0 -98 -32 -175t-89 -132.5t-138.5 -91t-179.5 -51.5v-194h-282v189 q-147 13 -274 53.5t-224 107.5z" />
<glyph unicode="%" horiz-adv-x="2017" d="M41 1062q0 86 30.5 159t85 126t128.5 83t161 30t161.5 -30t129 -83t85 -126t30.5 -159t-30.5 -159.5t-85 -126t-128.5 -82.5t-162 -30q-87 0 -161 30t-128.5 82.5t-85 126t-30.5 159.5zM295 0l1068 1434h349l-1068 -1434h-349zM316 1062q0 -29 10 -54t27.5 -44t41 -29.5 t51.5 -10.5q29 0 52.5 10.5t41 29.5t27.5 44t10 54t-10 54.5t-27.5 44t-41 29t-52.5 10.5t-52 -10.5t-40.5 -29.5t-27.5 -44t-10 -54zM1165 372q0 84 31 156.5t85 126.5t128.5 84.5t161.5 30.5t161 -30t128.5 -83t85 -126t30.5 -159t-30.5 -159.5t-85 -126t-128.5 -83 t-161 -30.5t-161.5 30.5t-128.5 83t-85 126t-31 159.5zM1441 372q0 -29 9.5 -54t27 -44t41 -30t52.5 -11t52.5 11t40.5 30t27 44t10 54t-10 54.5t-27 43.5t-40.5 29t-52.5 11t-52.5 -11t-41 -29.5t-27 -44t-9.5 -53.5z" />
<glyph unicode="&#x26;" horiz-adv-x="1544" d="M59 360q0 60 18.5 114t51 102t75 90t90.5 78q-38 41 -66 79t-47 77t-29 80.5t-10 88.5q0 87 33.5 159t94.5 124t147 80t191 28q104 0 190 -28t147 -79t94 -123.5t33 -160.5q0 -53 -22 -101t-58.5 -91.5t-84 -82.5t-99.5 -75l148 -147l219 256l256 -195l-244 -287 l352 -346h-478l-114 110q-40 -29 -84.5 -54t-94.5 -43.5t-106 -29t-118 -10.5q-116 0 -206 29t-152 80t-94.5 122t-32.5 156zM449 403q0 -52 34.5 -81t99.5 -29q34 0 66.5 11t64.5 31l-192 186q-34 -30 -53.5 -59t-19.5 -59zM500 1059q0 -12 4 -24t13.5 -26t26.5 -32t43 -42 q58 37 94.5 69t36.5 63q0 33 -30 57.5t-80 24.5q-52 0 -80 -23.5t-28 -66.5z" />
<glyph unicode="'" horiz-adv-x="651" d="M143 764v711h365v-711h-365z" />
<glyph unicode="(" horiz-adv-x="852" d="M61 582q0 167 48.5 313t134.5 264t204.5 204.5t260.5 134.5l103 -315q-99 -48 -170 -111t-115.5 -139.5t-65.5 -164.5t-21 -186q0 -97 21 -186t65.5 -165t115.5 -139.5t170 -110.5l-103 -316q-141 47 -260 133.5t-205 205t-134.5 265t-48.5 313.5z" />
<glyph unicode=")" horiz-adv-x="852" d="M41 -19q99 47 170 110.5t115.5 139.5t65.5 164.5t21 186.5t-21 186t-65.5 164.5t-115.5 139.5t-170 111l103 315q141 -48 260 -134.5t205 -204.5t134.5 -264t48.5 -313t-48.5 -313.5t-134.5 -265t-204.5 -205t-260.5 -133.5z" />
<glyph unicode="*" horiz-adv-x="968" d="M51 1056l89 272l212 -81l-11 228h287l-12 -228l212 81l90 -272l-221 -60l144 -177l-233 -168l-124 190l-124 -190l-232 168l142 177z" />
<glyph unicode="+" d="M123 397v293h342v345h299v-345h342v-293h-342v-345h-299v345h-342z" />
<glyph unicode="," horiz-adv-x="604" d="M56 -299l90 711h393l-182 -711h-301z" />
<glyph unicode="-" horiz-adv-x="768" d="M72 390v307h624v-307h-624z" />
<glyph unicode="." horiz-adv-x="615" d="M72 211q0 47 19 89.5t51.5 75t75.5 51t91 18.5q47 0 89.5 -18.5t75 -51t51.5 -75t19 -89.5q0 -48 -19 -91t-51.5 -76t-75 -52t-89.5 -19q-48 0 -91 19t-75.5 52t-51.5 76t-19 91z" />
<glyph unicode="/" horiz-adv-x="1118" d="M-61 -205l869 1782h372l-870 -1782h-371z" />
<glyph unicode="0" d="M33 717q0 189 44.5 329t123.5 232t186.5 137t232.5 45q123 0 228 -45t182.5 -137t121.5 -232t44 -329t-44 -329t-121.5 -232.5t-183 -137.5t-227.5 -45q-125 0 -232.5 45t-186.5 137.5t-123.5 232t-44.5 329.5zM422 717q0 -101 15.5 -173.5t42 -118.5t62.5 -67.5 t78 -21.5q39 0 73 21.5t59 67.5t40 118t15 174q0 101 -15 173.5t-40 118.5t-59 67.5t-73 21.5q-42 0 -78 -21.5t-62.5 -67.5t-42 -118.5t-15.5 -173.5z" />
<glyph unicode="1" d="M176 852v367l681 237v-1098h286v-358h-956v358h292v599z" />
<glyph unicode="2" d="M56 1202q37 43 88.5 89t118.5 83.5t152 61.5t191 24q115 0 208.5 -32.5t160 -93t103 -146.5t36.5 -193q0 -62 -12 -117t-40.5 -108t-74 -108.5t-111.5 -117.5l-205 -195h472v-349h-1006v296l488 460q97 92 97 191q0 35 -13 62.5t-35 47t-51.5 30.5t-63.5 11 q-45 0 -85 -13t-75 -35t-67 -50t-62 -59z" />
<glyph unicode="3" d="M55 185l209 246q120 -123 286 -123q41 0 77 8t62.5 23.5t42.5 39t16 56.5q0 31 -18 54.5t-48.5 39.5t-71 23.5t-86.5 7.5h-156v328h160q41 0 77 8t62 23.5t41 38t15 52.5q0 58 -46.5 86.5t-126.5 28.5q-49 0 -91.5 -10.5t-78 -28t-65.5 -41t-55 -49.5l-203 250 q44 46 96 85.5t114 68t135.5 44.5t161.5 16q120 0 220.5 -29.5t173 -84t113 -131t40.5 -171.5q0 -112 -52 -192.5t-152 -129.5q112 -46 172.5 -128t60.5 -194q0 -109 -48 -189t-127 -132.5t-181.5 -79t-212.5 -26.5q-168 0 -298.5 55t-217.5 157z" />
<glyph unicode="4" d="M30 230v259l439 945h412l-401 -854h178v127l113 246h265v-373h163v-350h-163v-230h-378v230h-628z" />
<glyph unicode="5" d="M59 160l172 285q24 -20 62 -43t84.5 -42.5t99 -32.5t106.5 -13q84 0 128.5 36t44.5 107q0 29 -12 53t-38 40.5t-68 26.5t-103 10h-364l19 847h866v-345h-545l-5 -176h121q124 0 220.5 -29.5t163 -85.5t101.5 -136t35 -181q0 -115 -41 -208.5t-116 -160t-178 -103 t-227 -36.5q-84 0 -161 14.5t-144 40t-123 59.5t-98 73z" />
<glyph unicode="6" d="M36 470q0 105 39.5 207.5t109.5 208.5l368 548h453l-339 -473q127 -2 223.5 -40.5t161.5 -103t98 -150.5t33 -184q0 -111 -44 -204.5t-121 -161.5t-182 -106t-228 -38q-122 0 -226 37.5t-181 103.5t-121 157t-44 199zM434 479q0 -38 13 -69t36 -54t54.5 -36t70.5 -13 q38 0 71 13t56.5 36t36.5 54t13 69q0 37 -13 68t-36.5 54t-56.5 35.5t-71 12.5q-39 0 -70.5 -12.5t-54.5 -35.5t-36 -54t-13 -68z" />
<glyph unicode="7" d="M89 1084v350h1059v-297l-542 -1137h-452l545 1084h-610z" />
<glyph unicode="8" d="M29 391q0 66 19.5 118t53 93t79 71t98.5 51q-46 22 -85 52t-67.5 69.5t-44.5 89t-16 109.5q0 97 43.5 174.5t117.5 131.5t173.5 82t213.5 28t214.5 -28t174.5 -82t117.5 -131t43.5 -175q0 -60 -16 -109.5t-45 -89t-68 -70t-85 -51.5q52 -22 98.5 -52t80 -70.5t53 -92.5 t19.5 -118q0 -98 -46 -176t-126 -131.5t-187 -82t-228 -28.5t-227 28.5t-186 82t-126 131.5t-46 176zM443 438q0 -35 14 -61t37.5 -44t55 -27t64.5 -9q35 0 66.5 9t55 27t37 44t13.5 61t-13.5 62t-37 45.5t-55 28.5t-66.5 10q-34 0 -65 -10t-54.5 -28.5t-37.5 -45.5t-14 -62 zM470 1004q0 -31 11.5 -55t30.5 -40t45.5 -24.5t56.5 -8.5q31 0 57 8.5t45.5 24.5t31 40t11.5 55t-11.5 54t-31 38.5t-45.5 23.5t-57 8t-57 -8t-45 -23.5t-30.5 -39t-11.5 -53.5z" />
<glyph unicode="9" d="M47 950q0 111 43.5 204.5t120.5 161.5t182 106t228 38q122 0 226.5 -37.5t181.5 -103.5t121 -157t44 -198q0 -105 -39.5 -208t-110.5 -208l-367 -548h-453l339 473q-128 1 -224 39.5t-161 103.5t-98 151t-33 183zM444 954q0 -37 13.5 -67.5t36.5 -53.5t55.5 -36t71.5 -13 q38 0 70 13t55.5 36t36.5 54t13 67q0 38 -13 69.5t-36.5 54.5t-56 35.5t-69.5 12.5q-39 0 -71.5 -12.5t-55.5 -35.5t-36.5 -54.5t-13.5 -69.5z" />
<glyph unicode=":" horiz-adv-x="615" d="M72 211q0 47 19 89.5t51.5 75t75.5 51t91 18.5q47 0 89.5 -18.5t75 -51t51.5 -75t19 -89.5q0 -48 -19 -91t-51.5 -76t-75 -52t-89.5 -19q-48 0 -91 19t-75.5 52t-51.5 76t-19 91zM72 808q0 47 19 89.5t51.5 75t75.5 51t91 18.5q47 0 89.5 -18.5t75 -51t51.5 -75t19 -89.5 q0 -48 -19 -91t-51.5 -76t-75 -52t-89.5 -19q-48 0 -91 19t-75.5 52t-51.5 76t-19 91z" />
<glyph unicode=";" horiz-adv-x="604" d="M56 -299l90 711h393l-182 -711h-301zM84 808q0 47 19 89.5t51.5 75t76 51t91.5 18.5q47 0 89.5 -18.5t74.5 -51t51 -75t19 -89.5q0 -48 -19 -91t-51 -76t-74.5 -52t-89.5 -19q-48 0 -91.5 19t-76 52t-51.5 76t-19 91z" />
<glyph unicode="&#x3c;" d="M193 381v325l844 390v-336l-528 -216l528 -217v-336z" />
<glyph unicode="=" d="M123 157v293h983v-293h-983zM123 638v293h983v-293h-983z" />
<glyph unicode="&#x3e;" d="M193 -9v336l528 216l-528 217v336l844 -390v-325z" />
<glyph unicode="?" horiz-adv-x="913" d="M84 200q0 45 18.5 86t49 71.5t71.5 48.5t87 18q45 0 85.5 -18t71.5 -48.5t49 -71t18 -85.5q0 -46 -18 -87t-49 -72.5t-71.5 -50t-85.5 -18.5q-46 0 -87 18.5t-71.5 49.5t-49 72t-18.5 87zM88 1448q99 12 234 12q132 0 236.5 -29t176.5 -84t110 -133t38 -176 q0 -166 -101 -273t-293 -150l-7 -95h-344v382h111q120 0 176.5 22.5t56.5 71.5q0 52 -56.5 74.5t-176.5 23.5q-36 0 -73.5 -1.5t-67.5 -6.5z" />
<glyph unicode="@" horiz-adv-x="1908" d="M72 512q0 124 29.5 236t85 207.5t134 172.5t177.5 131.5t215 83.5t246 29t246 -28t213.5 -80t175 -125t132 -162.5t83 -194t28.5 -218.5q0 -108 -32 -196t-90.5 -152t-140 -99.5t-180.5 -35.5q-59 0 -106 11t-83.5 30.5t-62 45.5t-42.5 54q-33 -48 -87 -79t-135 -31 q-80 0 -143 31.5t-106 86t-66 127.5t-23 155q0 81 23.5 153.5t66.5 127.5t103.5 86.5t132.5 31.5q68 0 114 -23.5t78 -61.5v64h274v-458q0 -43 18.5 -67t57.5 -24q65 0 100.5 54t35.5 168q0 117 -42.5 216.5t-119.5 171.5t-184.5 113t-238.5 41q-130 0 -237.5 -43 t-184.5 -121.5t-119.5 -187.5t-42.5 -241t41 -241t115.5 -187.5t178.5 -121.5t229 -43q44 0 86.5 3.5t82.5 14t77.5 28.5t72.5 45l166 -216q-55 -40 -115.5 -67.5t-123 -44t-125 -23.5t-121.5 -7q-190 0 -349.5 64.5t-274.5 179.5t-179 272.5t-64 343.5zM836 511 q0 -30 8.5 -54.5t23 -42t34.5 -27t43 -9.5q47 0 78 37.5t31 95.5t-31 95.5t-78 37.5q-24 0 -43.5 -9.5t-34 -27t-23 -42t-8.5 -54.5z" />
<glyph unicode="A" horiz-adv-x="1554" d="M5 0l543 1434h459l542 -1434h-412l-96 273h-535l-94 -273h-407zM627 621h294l-147 423z" />
<glyph unicode="B" horiz-adv-x="1381" d="M102 0v1434h643q144 0 249.5 -29t173.5 -82t101 -129.5t33 -171.5q0 -52 -14 -97.5t-39.5 -84t-60.5 -69t-77 -51.5q47 -17 87 -48t69 -71.5t46 -88.5t17 -100q0 -95 -32 -171.5t-99 -130t-170.5 -82t-246.5 -28.5h-680zM492 316l269 -1q169 0 169 124q0 123 -169 123 h-269v-246zM492 878h244q162 0 162 119t-161 119h-245v-238z" />
<glyph unicode="C" horiz-adv-x="1504" d="M51 717q0 164 56 300.5t156.5 235t239.5 153t305 54.5q105 0 203 -24.5t182.5 -71t153 -114t115.5 -153.5l-345 -191q-105 181 -315 181q-75 0 -138.5 -27t-109.5 -76t-72 -117t-26 -150q0 -92 29 -161.5t77.5 -116t111 -70t129.5 -23.5q205 0 323 180l320 -223 q-51 -76 -117 -137t-146.5 -104t-174.5 -66t-200 -23q-166 0 -305 55t-239.5 153.5t-156.5 235t-56 300.5z" />
<glyph unicode="D" horiz-adv-x="1529" d="M102 0v1434h633q168 0 305.5 -51.5t234.5 -145t150.5 -226t53.5 -294.5t-53.5 -294.5t-150.5 -226.5t-234.5 -145t-305.5 -51h-633zM492 357h233q88 0 153.5 27.5t109 75.5t65 113.5t21.5 143.5q0 79 -21.5 145t-65 113.5t-109 74t-153.5 26.5h-233v-719z" />
<glyph unicode="E" horiz-adv-x="1304" d="M102 0v1434h1121v-347h-731v-189h679v-346h-679v-206h731v-346h-1121z" />
<glyph unicode="F" horiz-adv-x="1273" d="M102 0v1434h1110v-347h-720v-220h669v-346h-669v-521h-390z" />
<glyph unicode="G" horiz-adv-x="1562" d="M51 717q0 109 25.5 206.5t73.5 180t116.5 148.5t153.5 112.5t185.5 71t213.5 24.5q173 0 302 -52.5t222 -145.5l-274 -271q-49 48 -115 77t-158 29q-76 0 -139.5 -28t-109.5 -78t-71.5 -120t-25.5 -154q0 -98 29 -171.5t78 -122t112.5 -73t132.5 -24.5q136 0 215 52.5 t109 158.5h-335v284h712q5 -34 6.5 -66t1.5 -63q0 -120 -27.5 -219t-76.5 -179t-115 -140t-143.5 -100t-161.5 -60t-168 -20q-169 0 -310 55t-242.5 153.5t-158.5 235t-57 299.5z" />
<glyph unicode="H" horiz-adv-x="1513" d="M102 0v1434h390v-531h530v531h389v-1434h-389v546h-530v-546h-390z" />
<glyph unicode="I" horiz-adv-x="593" d="M102 0v1434h390v-1434h-390z" />
<glyph unicode="J" horiz-adv-x="1117" d="M23 133l188 301q19 -16 43.5 -32t53 -28.5t61.5 -20t72 -7.5q45 0 80.5 13t59.5 41t37 73.5t13 111.5v849h389v-882q0 -146 -39 -255t-109.5 -181t-170.5 -107.5t-223 -35.5q-80 0 -149 13.5t-127 35.5t-103 51t-76 60z" />
<glyph unicode="K" horiz-adv-x="1457" d="M102 0v1434h390v-539h112l362 539h473l-519 -700l565 -734h-478l-405 549h-110v-549h-390z" />
<glyph unicode="L" horiz-adv-x="1202" d="M102 0v1434h390v-1076h690v-358h-1080z" />
<glyph unicode="M" horiz-adv-x="1858" d="M102 0v1434h540l288 -863l287 863h539v-1434h-389v897l-230 -764h-415l-230 764v-897h-390z" />
<glyph unicode="N" horiz-adv-x="1563" d="M102 0v1434h379l591 -806v806h389v-1434h-379l-590 806v-806h-390z" />
<glyph unicode="O" horiz-adv-x="1617" d="M51 717q0 161 56 297t157 235.5t240 155t305 55.5t305 -55.5t240 -155t157 -235.5t56 -297t-56 -297t-157 -235.5t-240 -155.5t-305 -56t-305 56t-240 155.5t-157 235.5t-56 297zM456 717q0 -82 25.5 -150t72.5 -117.5t111.5 -76.5t143.5 -27q78 0 143 27t112 76.5 t72.5 117.5t25.5 150t-25.5 150t-72.5 117t-112 76t-143 27q-79 0 -143.5 -27t-111.5 -76t-72.5 -117t-25.5 -150z" />
<glyph unicode="P" horiz-adv-x="1345" d="M102 0v1434h639q136 0 240.5 -36t174.5 -101.5t105.5 -156.5t35.5 -202q0 -109 -35 -198.5t-105 -153.5t-172.5 -99t-238.5 -35h-254v-452h-390zM492 793h245q36 0 67 9.5t53 28t34.5 45.5t12.5 62t-12.5 62t-34.5 46t-53 28.5t-67 9.5h-245v-291z" />
<glyph unicode="Q" horiz-adv-x="1649" d="M51 717q0 161 56 297t157 235.5t240 155t305 55.5t305 -55.5t240 -155t157 -235.5t56 -297q0 -114 -30 -207t-83 -173l248 -337h-459l-59 80q-80 -49 -173 -78t-202 -29q-166 0 -305 56t-240 155.5t-157 235.5t-56 297zM456 717q0 -82 25.5 -150t72.5 -117.5t111.5 -76.5 t143.5 -27q80 0 147 29l-195 263l394 -1q7 33 7 80q0 82 -25.5 150t-72.5 117t-112 76t-143 27q-79 0 -143.5 -27t-111.5 -76t-72.5 -117t-25.5 -150z" />
<glyph unicode="R" horiz-adv-x="1368" d="M102 0v1434h639q136 0 240.5 -34t174.5 -96.5t105.5 -150.5t35.5 -197q0 -83 -23.5 -153.5t-70.5 -125.5t-116 -93.5t-160 -57.5l390 -526h-459l-345 509h-21v-509h-390zM492 829h245q36 0 67 8t53 23.5t34.5 39.5t12.5 56q0 33 -12.5 57t-34.5 40t-53 23.5t-67 7.5h-245 v-255z" />
<glyph unicode="S" horiz-adv-x="1388" d="M61 152l191 317q43 -26 90.5 -52t104.5 -47.5t124.5 -34.5t149.5 -13q39 0 72 5.5t57 17t38 30.5t14 46q0 28 -17 45.5t-50 30t-83.5 22t-116.5 21.5l-54 9q-124 22 -212.5 59t-144.5 93q-56 57 -81 131q-22 67 -22 149v20q3 102 45.5 187t118.5 145.5t182 93t235 32.5 q71 0 139 -5t141 -21t152.5 -45.5t173.5 -78.5l-168 -319q-36 19 -80 40.5t-96.5 39t-111.5 29t-126 11.5q-39 0 -72.5 -5.5t-58.5 -17t-39 -29t-14 -41.5q0 -30 25 -48.5t66.5 -30.5t93.5 -20.5t108 -18.5l46 -9q446 -86 446 -420q0 -136 -52.5 -231t-138.5 -153.5 t-196 -85.5t-224 -27q-195 0 -363 44.5t-292 134.5z" />
<glyph unicode="T" horiz-adv-x="1245" d="M20 1075v359h1205v-359h-408v-1075h-389v1075h-408z" />
<glyph unicode="U" horiz-adv-x="1454" d="M92 585v849h390v-838q0 -124 65 -187t180 -63t180 63t65 187v838h390v-849q0 -146 -41.5 -260t-122 -192.5t-198.5 -119t-273 -40.5t-273 40.5t-198.5 119t-122 192t-41.5 260.5z" />
<glyph unicode="V" horiz-adv-x="1513" d="M5 1434h413l342 -1027l342 1027h406l-522 -1434h-459z" />
<glyph unicode="W" horiz-adv-x="2232" d="M8 1434h401l244 -962l258 962h415l258 -963l245 963h395l-409 -1434h-459l-240 839l-239 -839h-459z" />
<glyph unicode="X" horiz-adv-x="1388" d="M5 0l454 721l-454 713h440l251 -424l250 424h437l-453 -712l453 -722h-440l-251 425l-250 -425h-437z" />
<glyph unicode="Y" horiz-adv-x="1462" d="M2 1434h447l289 -542l289 542h433l-528 -891v-543h-389v538z" />
<glyph unicode="Z" horiz-adv-x="1310" d="M61 0v305l671 782h-671v347h1188v-306l-670 -782h670v-346h-1188z" />
<glyph unicode="[" horiz-adv-x="765" d="M102 -269v1703h623v-324h-256v-1056h256v-323h-623z" />
<glyph unicode="\" horiz-adv-x="1118" d="M-61 1577h371l870 -1782h-372z" />
<glyph unicode="]" horiz-adv-x="765" d="M41 54h256v1056h-256v324h623v-1703h-623v323z" />
<glyph unicode="_" horiz-adv-x="962" d="M-5 -85h973v-262h-973v262z" />
<glyph unicode="a" horiz-adv-x="1220" d="M43 509q0 110 34 207t95 169.5t146 114.5t188 42q96 0 162.5 -33t112.5 -85v91h351v-1015h-351v89q-46 -52 -113 -84t-163 -32q-101 0 -186.5 42t-146.5 115.5t-95 170.5t-34 208zM419 508q0 -43 13 -79t37.5 -62t57.5 -40.5t72 -14.5t72.5 14.5t57.5 40.5t37 62t13 79 t-13 79t-37 62t-57.5 40t-72.5 14t-72 -14t-57.5 -40t-37.5 -62t-13 -79z" />
<glyph unicode="b" horiz-adv-x="1219" d="M89 0v1475h365v-534q46 46 108.5 73.5t151.5 27.5q102 0 187 -42t146.5 -114.5t95.5 -170t34 -206.5q0 -111 -34 -208t-95.5 -170.5t-146.5 -115.5t-186 -42q-96 0 -163.5 32t-113.5 84v-89h-349zM440 508q0 -43 13.5 -79t37.5 -62t57.5 -40.5t72.5 -14.5t72 14.5 t57 40.5t37.5 62t13.5 79t-13.5 79t-37.5 62t-57 40t-72 14t-72.5 -14t-57.5 -40t-37.5 -62t-13.5 -79z" />
<glyph unicode="c" horiz-adv-x="1068" d="M43 508q0 118 41 216t114 169t174.5 110t223.5 39q154 0 266.5 -65.5t189.5 -179.5l-299 -189q-33 49 -71.5 72t-93.5 23q-34 0 -64.5 -12.5t-55 -37t-38.5 -61.5t-14 -84q0 -48 13.5 -84.5t37 -61t54 -37.5t64.5 -13q103 0 168 97l300 -192q-75 -114 -189 -179t-268 -65 q-122 0 -223.5 39.5t-174.5 110.5t-114 169t-41 216z" />
<glyph unicode="d" horiz-adv-x="1219" d="M43 509q0 110 34 207t95 169.5t146.5 114.5t187.5 42q89 0 151.5 -27.5t108.5 -73.5v534h364v-1475h-349v89q-46 -52 -113 -84t-163 -32q-101 0 -186.5 42t-146.5 115.5t-95 170.5t-34 208zM419 508q0 -43 13 -79t37.5 -62t57.5 -40.5t72 -14.5t72.5 14.5t57.5 40.5 t37 62t13 79t-13 79t-37 62t-57.5 40t-72.5 14t-72 -14t-57.5 -40t-37.5 -62t-13 -79z" />
<glyph unicode="e" horiz-adv-x="1132" d="M43 499q0 121 38.5 220.5t108 171.5t166.5 111.5t214 39.5q115 0 211 -38.5t164.5 -109.5t106.5 -169t38 -217q0 -13 -0.5 -28.5t-2 -31t-3 -28.5t-2.5 -21h-662q37 -123 182 -123q49 0 99 20.5t93 61.5l249 -208q-74 -80 -190 -128.5t-268 -48.5q-122 0 -222 38 t-171 107t-110 166t-39 215zM421 620h305q-39 116 -154 116q-117 0 -151 -116z" />
<glyph unicode="f" horiz-adv-x="879" d="M27 693v322h163v40q0 114 30.5 197.5t84 139t128 82.5t162.5 27q66 0 120 -9.5t98.5 -25.5t81 -38t67.5 -47l-166 -260q-35 16 -68 28.5t-78 12.5q-49 0 -72 -27t-23 -89v-31h258v-322h-258v-693h-365v693h-163z" />
<glyph unicode="g" horiz-adv-x="1214" d="M43 535q0 105 34 197t94 161.5t145.5 109t188.5 39.5q95 0 160.5 -32t109.5 -84v89h350v-906q0 -128 -39.5 -228t-112.5 -169t-175 -105.5t-225 -36.5q-135 0 -259 32.5t-220 100.5l129 287q74 -55 151 -79.5t167 -24.5q38 0 78 11t74 35.5t55.5 63.5t21.5 95v46 q-44 -49 -108 -79.5t-157 -30.5q-103 0 -188.5 39.5t-145.5 109t-94 161.5t-34 198zM421 535q0 -39 13 -71.5t37 -56t55.5 -37t69.5 -13.5t69 13.5t53.5 37t35.5 56t13 71.5q0 38 -13 70.5t-35.5 56t-53.5 37t-69 13.5t-69.5 -13.5t-55.5 -37t-37 -56.5t-13 -70z" />
<glyph unicode="h" horiz-adv-x="1157" d="M89 0v1477h365v-542q85 107 254 107h3q79 0 145.5 -26.5t114.5 -76.5t75 -120.5t27 -158.5v-660h-364v546q0 77 -33.5 116t-94.5 39q-27 0 -50 -8.5t-40.5 -28t-27 -49t-9.5 -71.5v-544h-365z" />
<glyph unicode="i" horiz-adv-x="542" d="M61 1312q0 44 16 82.5t44.5 66.5t66 44t82.5 16q44 0 82.5 -16t66.5 -44t44 -66.5t16 -82.5q0 -45 -16 -83t-44 -66t-66.5 -44t-82.5 -16q-45 0 -82.5 16t-66 44t-44.5 66t-16 83zM89 0v1015h365v-1015h-365z" />
<glyph unicode="j" horiz-adv-x="542" d="M-48 -414l21 325q13 -4 27.5 -6t32.5 -2q25 0 40.5 16t15.5 63v1033h365v-1058q0 -93 -25 -166t-70 -123.5t-109 -77t-144 -26.5q-17 0 -38 1.5t-42.5 4.5t-41 7t-32.5 9zM59 1312q0 44 16 82.5t44 66.5t66 44t83 16q44 0 82.5 -16t66.5 -44t44 -66.5t16 -82.5 q0 -45 -16 -83t-44 -66t-66.5 -44t-82.5 -16q-45 0 -83 16t-66 44t-44 66t-16 83z" />
<glyph unicode="k" horiz-adv-x="1139" d="M89 0v1475h365v-777h60l205 317h438l-355 -479l355 -536h-436l-217 378h-50v-378h-365z" />
<glyph unicode="l" horiz-adv-x="542" d="M89 0v1475h365v-1475h-365z" />
<glyph unicode="m" horiz-adv-x="1776" d="M89 0v1015h347v-105q86 132 275 132q99 0 175.5 -40.5t125.5 -115.5q92 156 302 156q88 0 158 -26.5t119 -76.5t75.5 -120.5t26.5 -158.5v-660h-365v546q0 77 -33 116t-95 39q-27 0 -50 -8.5t-40 -28t-27 -49t-10 -71.5v-544h-364v546q0 77 -33.5 116t-94.5 39 q-27 0 -50 -8.5t-40.5 -28t-27 -49t-9.5 -71.5v-544h-365z" />
<glyph unicode="n" horiz-adv-x="1157" d="M89 0v1015h347v-105q87 132 275 132q79 0 145.5 -26.5t114.5 -76.5t75 -120.5t27 -158.5v-660h-364v546q0 77 -33.5 116t-94.5 39q-54 0 -90.5 -37.5t-36.5 -119.5v-544h-365z" />
<glyph unicode="o" horiz-adv-x="1191" d="M43 508q0 116 41.5 213.5t115 169.5t175 111.5t221.5 39.5t221.5 -39.5t175 -111.5t115 -169.5t41.5 -213.5t-41.5 -213.5t-115 -169.5t-175 -112t-221.5 -40t-221.5 40t-175 112t-115 169.5t-41.5 213.5zM416 508q0 -43 13 -79t37 -62t57.5 -40.5t72.5 -14.5t72 14.5 t57.5 40.5t37.5 62t13 79t-13 79t-37.5 62t-57.5 40t-72 14t-72.5 -14t-57.5 -40t-37 -62t-13 -79z" />
<glyph unicode="p" horiz-adv-x="1219" d="M89 -410v1425h349v-91q46 52 113 85t163 33q102 0 187 -42t146.5 -114.5t95.5 -170t34 -206.5q0 -111 -34 -208t-95.5 -170.5t-146.5 -115.5t-186 -42q-90 0 -152.5 27t-108.5 73v-483h-365zM440 508q0 -43 13.5 -79t37.5 -62t57.5 -40.5t72.5 -14.5t72 14.5t57 40.5 t37.5 62t13.5 79t-13.5 79t-37.5 62t-57 40t-72 14t-72.5 -14t-57.5 -40t-37.5 -62t-13.5 -79z" />
<glyph unicode="q" horiz-adv-x="1219" d="M43 509q0 110 34 207t95 169.5t146.5 114.5t187.5 42q96 0 162.5 -33t112.5 -85v91h349v-1425h-364v483q-46 -46 -109 -73t-152 -27q-101 0 -186.5 42t-146.5 115.5t-95 170.5t-34 208zM419 508q0 -43 13 -79t37.5 -62t57.5 -40.5t72 -14.5t72.5 14.5t57.5 40.5t37 62 t13 79t-13 79t-37 62t-57.5 40t-72.5 14t-72 -14t-57.5 -40t-37.5 -62t-13 -79z" />
<glyph unicode="r" horiz-adv-x="824" d="M89 0v1015h348v-103q43 68 110 99t160 31q30 0 54.5 -4t36.5 -6l-21 -364q-32 8 -73.5 15.5t-86.5 7.5q-38 0 -68 -7t-51 -24.5t-32 -45.5t-11 -70v-544h-366z" />
<glyph unicode="s" horiz-adv-x="1044" d="M45 71l117 284q169 -92 367 -92q60 0 83 10.5t23 32.5q0 24 -35.5 34t-119.5 22l-40 7q-188 29 -275.5 107.5t-87.5 219.5q0 84 29.5 148.5t87 108.5t140.5 66.5t189 22.5q62 0 113 -3.5t101 -12t105.5 -24t127.5 -38.5l-87 -285q-43 16 -89 30t-91 23.5t-86.5 15.5 t-75.5 6q-53 0 -70.5 -10.5t-17.5 -27.5q0 -14 12 -22t33.5 -13t51.5 -9t64 -10l62 -11q323 -53 323 -309q0 -90 -32 -158t-92.5 -115t-148 -71.5t-199.5 -24.5q-75 0 -145.5 7t-132.5 19t-114 30t-90 42z" />
<glyph unicode="t" horiz-adv-x="1003" d="M27 693v322h184v291h364v-291h330v-322h-330v-237q0 -41 10.5 -69t28.5 -44t43 -23.5t55 -7.5q22 0 43 6t42.5 15t41.5 20t38 21l121 -283q-38 -27 -77 -48t-84 -36.5t-99 -24.5t-121 -9q-109 0 -185.5 32t-125.5 88.5t-72 134.5t-23 171v294h-184z" />
<glyph unicode="u" horiz-adv-x="1163" d="M84 437v578h365v-547q0 -77 35.5 -116.5t97.5 -39.5q61 0 97 39.5t36 116.5v547h364v-579q0 -119 -37.5 -206t-104.5 -143.5t-158 -85t-197 -28.5t-197.5 28.5t-158 85.5t-104.5 144t-38 206z" />
<glyph unicode="v" horiz-adv-x="1198" d="M9 1015h399l196 -607l199 607h386l-380 -1015h-413z" />
<glyph unicode="w" horiz-adv-x="1888" d="M14 1015h389l179 -593l186 593h353l189 -594l179 594h385l-355 -1015h-400l-177 543l-172 -543h-399z" />
<glyph unicode="x" horiz-adv-x="1216" d="M17 0l355 511l-341 504h422l163 -267l162 267h417l-344 -507l348 -508h-419l-176 265l-169 -265h-418z" />
<glyph unicode="y" horiz-adv-x="1213" d="M6 1015h421l191 -400l191 400h399l-728 -1425h-398l342 639z" />
<glyph unicode="z" horiz-adv-x="1063" d="M62 0v261l416 432h-398v322h910v-272l-404 -421h415v-322h-939z" />
<glyph unicode="{" horiz-adv-x="902" d="M61 431v302q105 0 161 40.5t52 117.5l-3 80q-4 105 20.5 191t78.5 146t136.5 93t193.5 33h161v-312h-99q-61 0 -95 -36.5t-31 -110.5l3 -70q3 -57 -4.5 -107t-32 -91t-70 -72.5t-116.5 -51.5q72 -22 117 -53.5t69.5 -72t32 -90.5t4.5 -108l-3 -70q-3 -74 30.5 -110.5 t95.5 -36.5h99v-311h-161q-112 0 -194 32.5t-136 92.5t-78.5 145.5t-20.5 192.5l3 79q3 77 -52 117.5t-161 40.5z" />
<glyph unicode="|" horiz-adv-x="651" d="M143 -271v1705h365v-1705h-365z" />
<glyph unicode="}" horiz-adv-x="902" d="M41 42h99q61 0 95 37t31 110l-3 70q-3 57 4 107t32 91.5t70 72.5t117 52q-72 22 -116.5 53t-69.5 72t-32.5 90.5t-4.5 107.5l3 70q3 74 -30.5 110.5t-95.5 36.5h-99v312h161q111 0 193 -33t136 -93t79 -146t21 -191l-3 -80q-3 -77 52 -117.5t161 -40.5v-302 q-105 0 -160.5 -40.5t-52.5 -117.5l3 -79q4 -106 -21 -192t-79 -146t-136.5 -92.5t-192.5 -32.5h-161v311z" />
<glyph unicode="&#xa1;" horiz-adv-x="615" d="M83 816q0 46 18 87t48.5 72t71 49t85.5 18q46 0 87 -18t72 -49t49 -72t18 -87q0 -45 -18 -85.5t-49 -71t-72 -48.5t-87 -18q-45 0 -85.5 18t-71 48.5t-48.5 71t-18 85.5zM93 -418l41 903h344l41 -903h-426z" />
<glyph unicode="&#xa3;" horiz-adv-x="1433" d="M135 0v349h152v229h-152v278h152v33q0 144 47.5 251.5t128.5 178.5t188.5 106t227.5 35q124 0 233 -38.5t186 -114.5l-249 -269q-33 30 -77 45t-93 15q-43 0 -82 -12t-68.5 -37.5t-46 -65.5t-16.5 -96v-31h462v-278h-462v-229h579v-349h-1110z" />
<glyph unicode="&#xa5;" horiz-adv-x="1433" d="M13 1434h432l279 -447l276 447h420l-429 -658h276v-213h-354v-96h354v-213h-354v-254h-378v254h-355v213h355v96h-355v213h272z" />
<glyph unicode="&#xa7;" horiz-adv-x="1326" d="M74 -210l173 297q39 -22 82 -44.5t94 -40t112 -29.5t137 -12q34 0 62 4t48.5 13.5t32 23.5t11.5 36q0 25 -14.5 38.5t-45 23t-75 16.5t-102.5 19l-47 9q-101 20 -180 51t-133 75.5t-81.5 104t-27.5 137.5q0 80 34.5 146t99.5 115q-55 47 -80.5 109.5t-25.5 143.5 q0 96 38 176t108.5 137.5t168.5 89t220 31.5q59 0 118 -4t124.5 -17t139.5 -38.5t162 -68.5l-153 -299q-31 16 -70 34t-86.5 33.5t-102 25.5t-115.5 10q-34 0 -62.5 -4.5t-49.5 -13t-33 -22t-12 -32.5q0 -26 23 -42t61 -27t85 -19t96 -18l39 -7q205 -37 305 -127.5 t100 -213.5q0 -96 -34.5 -165.5t-94.5 -118.5q99 -90 100 -232q0 -83 -22.5 -149.5t-61.5 -117t-92.5 -86.5t-115.5 -58.5t-130 -33t-136 -10.5q-176 0 -328 37t-263 114zM513 568q0 -29 23.5 -45t61 -26.5t85 -17.5t96.5 -17l29 -6q23 12 35.5 31t12.5 48q0 26 -15 42 t-44.5 27t-74.5 19.5t-105 18.5l-37 5q-31 -11 -49 -30t-18 -49z" />
<glyph unicode="&#xa9;" horiz-adv-x="1820" d="M61 728q0 114 30.5 218.5t85.5 195.5t132.5 165.5t171.5 128.5t202.5 83t226.5 29t226.5 -29t203 -83t171.5 -128.5t132.5 -165.5t85.5 -196t30 -218t-30 -217.5t-85.5 -196.5t-132.5 -167t-171.5 -128.5t-203 -83t-226.5 -29.5t-226.5 29.5t-202.5 83t-171.5 128.5 t-132.5 167t-85.5 196t-30.5 218zM373 728q0 -110 42 -206t115 -167.5t171 -113t209 -41.5q112 0 210 41.5t170.5 113t115 167.5t42.5 206q0 109 -42.5 205t-115 167t-170.5 112.5t-210 41.5t-209.5 -41.5t-170.5 -112.5t-115 -167t-42 -205zM505 727q0 89 30 162.5 t84.5 125.5t130 80.5t168.5 28.5q67 0 127.5 -16t112 -47.5t91 -77t63.5 -103.5l-257 -111q-22 53 -56 76.5t-87 23.5t-86.5 -37t-33.5 -105q0 -42 11.5 -69t29.5 -43t39.5 -22t39.5 -6q49 0 86 22.5t65 77.5l236 -144q-55 -98 -150.5 -155t-230.5 -57q-92 0 -168 28.5 t-130.5 81t-84.5 125t-30 161.5z" />
<glyph unicode="&#xab;" horiz-adv-x="1160" d="M56 544l205 421h344l-205 -421l205 -421h-344zM561 544l205 421h344l-205 -421l205 -421h-344z" />
<glyph unicode="&#xad;" horiz-adv-x="768" d="M72 390v307h624v-307h-624z" />
<glyph unicode="&#xae;" horiz-adv-x="1014" d="M20 1007q0 98 37.5 184.5t103 150.5t155 101.5t192.5 37.5q102 0 191 -37.5t155 -101.5t103 -150.5t37 -184.5q0 -97 -37.5 -183.5t-103.5 -151t-155 -101.5t-190 -37q-103 0 -192.5 37t-155 101.5t-103 150.5t-37.5 184zM185 1007q0 -66 26 -124.5t69.5 -102.5 t102 -69.5t125.5 -25.5q65 0 123 25.5t101.5 69.5t69 102.5t25.5 124.5t-25.5 124.5t-69 102.5t-102 69.5t-122.5 25.5q-67 0 -125.5 -25.5t-102 -69.5t-69.5 -103t-26 -124zM321 791v433h207q90 0 136.5 -40.5t46.5 -108.5q0 -52 -30.5 -86t-91.5 -46l128 -152h-151 l-111 147h-8v-147h-126zM447 1043h79q24 0 39.5 7.5t15.5 24.5t-15.5 26.5t-39.5 9.5h-79v-68z" />
<glyph unicode="&#xb0;" horiz-adv-x="910" d="M20 1026q0 90 34.5 169t93.5 138t138.5 93t169.5 34t168.5 -34t137.5 -93t93.5 -138t34.5 -169q0 -88 -34.5 -165.5t-93.5 -134.5t-137.5 -91t-168.5 -34t-169.5 34t-138.5 91t-93.5 134.5t-34.5 165.5zM307 1026q0 -31 12 -58t32 -47t47 -31.5t58 -11.5t57.5 11.5 t46.5 31.5t31.5 47t11.5 58t-11.5 57.5t-31.5 46.5t-47 32t-57 12q-31 0 -58 -12t-47 -32t-32 -46.5t-12 -57.5z" />
<glyph unicode="&#xb7;" horiz-adv-x="715" d="M122 544q0 47 19 89.5t51.5 74.5t75.5 51t91 19q47 0 90 -19t75 -51t51 -74.5t19 -89.5q0 -48 -19 -91t-51 -76t-74.5 -52t-90.5 -19t-91 19t-75.5 52t-51.5 76t-19 91z" />
<glyph unicode="&#xbb;" horiz-adv-x="1160" d="M50 123l205 421l-205 421h344l205 -421l-205 -421h-344zM555 123l205 421l-205 421h344l205 -421l-205 -421h-344z" />
<glyph unicode="&#xbf;" horiz-adv-x="913" d="M31 -23q0 166 100.5 272.5t292.5 149.5l7 97h344v-382h-110q-120 0 -177 -22.5t-57 -72.5q0 -52 57 -74t177 -23q36 0 73 1.5t68 5.5l19 -361q-100 -12 -233 -12q-132 0 -236.5 29t-177 84t-110 133t-37.5 175zM380 815q0 46 18 87t48.5 72.5t71 49.5t85.5 18 q46 0 87 -18t72 -49t49 -72t18 -87q0 -45 -18 -86t-49 -71.5t-72 -48.5t-87 -18q-45 0 -85.5 18t-71 48.5t-48.5 71t-18 85.5z" />
<glyph unicode="&#xc0;" horiz-adv-x="1554" d="M5 0l543 1434h459l542 -1434h-412l-96 273h-535l-94 -273h-407zM368 1893h407l226 -354h-336zM627 621h294l-147 423z" />
<glyph unicode="&#xc1;" horiz-adv-x="1554" d="M5 0l543 1434h459l542 -1434h-412l-96 273h-535l-94 -273h-407zM542 1539l226 354h408l-297 -354h-337zM627 621h294l-147 423z" />
<glyph unicode="&#xc2;" horiz-adv-x="1554" d="M5 0l543 1434h459l542 -1434h-412l-96 273h-535l-94 -273h-407zM351 1529l237 354h378l236 -354h-316l-109 139l-109 -139h-317zM627 621h294l-147 423z" />
<glyph unicode="&#xc3;" horiz-adv-x="1554" d="M5 0l543 1434h459l542 -1434h-412l-96 273h-535l-94 -273h-407zM336 1720q32 49 68 82t76 53.5t82.5 29t86.5 8.5q55 0 94.5 -11.5t69 -26t51 -26t41.5 -11.5q24 0 52 18t59 53l202 -183q-32 -49 -68.5 -82t-76.5 -53.5t-82.5 -29t-86.5 -8.5q-55 0 -94.5 11.5t-68.5 26 t-50.5 26.5t-42.5 12q-24 0 -52 -18.5t-58 -53.5zM627 621h294l-147 423z" />
<glyph unicode="&#xc4;" horiz-adv-x="1554" d="M5 0l543 1434h459l542 -1434h-412l-96 273h-535l-94 -273h-407zM317 1706q0 44 16 82.5t44.5 66.5t66 44t82.5 16q44 0 82.5 -16t66.5 -44t44 -66.5t16 -82.5q0 -45 -16 -83t-44 -66t-66.5 -44t-82.5 -16q-45 0 -82.5 16t-66 44t-44.5 66t-16 83zM627 621h294l-147 423z M819 1706q0 44 16 82.5t44 66.5t66 44t83 16q44 0 82.5 -16t66.5 -44t44 -66.5t16 -82.5q0 -45 -16 -83t-44 -66t-66.5 -44t-82.5 -16q-45 0 -83 16t-66 44t-44 66t-16 83z" />
<glyph unicode="&#xc5;" horiz-adv-x="1554" d="M5 0l543 1434h459l542 -1434h-412l-96 273h-535l-94 -273h-407zM482 1787q0 59 23 112.5t63 92.5t94 62t114 23q61 0 115 -23t94 -62t63 -92.5t23 -112.5q0 -60 -23 -113t-63 -92.5t-94 -62t-115 -22.5q-60 0 -114 22.5t-94 62t-63 92t-23 113.5zM627 621h294l-147 423z M675 1787q0 -23 8 -42t22 -32.5t32.5 -22t38.5 -8.5t39.5 8.5t33 22t22 32.5t8.5 42q0 22 -8.5 41t-22 33t-32.5 22t-40 8q-20 0 -38.5 -8t-32.5 -22t-22 -33.5t-8 -40.5z" />
<glyph unicode="&#xc6;" horiz-adv-x="2330" d="M4 0l952 1434h1293v-347h-731v-189h680v-346h-680v-206h731v-346h-1121v248h-508l-159 -248h-457zM842 595h286v447z" />
<glyph unicode="&#xc7;" horiz-adv-x="1504" d="M51 717q0 164 56 300.5t156.5 235t239.5 153t305 54.5q105 0 203 -24.5t182.5 -71t153 -114t115.5 -153.5l-345 -191q-105 181 -315 181q-75 0 -138.5 -27t-109.5 -76t-72 -117t-26 -150q0 -92 29 -161.5t77.5 -116t111 -70t129.5 -23.5q205 0 323 180l320 -223 q-51 -76 -117 -137t-146.5 -104t-174.5 -66t-200 -23q-166 0 -305 55t-239.5 153.5t-156.5 235t-56 300.5zM516 -329l114 336h340l-106 -336h-348z" />
<glyph unicode="&#xc8;" horiz-adv-x="1304" d="M102 0v1434h1121v-347h-731v-189h679v-346h-679v-206h731v-346h-1121zM253 1893h407l227 -354h-337z" />
<glyph unicode="&#xc9;" horiz-adv-x="1304" d="M102 0v1434h1121v-347h-731v-189h679v-346h-679v-206h731v-346h-1121zM427 1539l226 354h408l-297 -354h-337z" />
<glyph unicode="&#xca;" horiz-adv-x="1304" d="M102 0v1434h1121v-347h-731v-189h679v-346h-679v-206h731v-346h-1121zM237 1529l236 354h378l236 -354h-316l-108 139l-110 -139h-316z" />
<glyph unicode="&#xcb;" horiz-adv-x="1304" d="M102 0v1434h1121v-347h-731v-189h679v-346h-679v-206h731v-346h-1121zM203 1706q0 44 15.5 82.5t44 66.5t66.5 44t83 16q44 0 82 -16t66.5 -44t44.5 -66.5t16 -82.5q0 -45 -16 -83t-44.5 -66t-66.5 -44t-82 -16q-45 0 -83 16t-66.5 44t-44 66t-15.5 83zM705 1706 q0 44 15.5 82.5t44 66.5t66 44t82.5 16q44 0 82.5 -16t67 -44t44 -66.5t15.5 -82.5q0 -45 -15.5 -83t-44 -66t-67 -44t-82.5 -16q-45 0 -82.5 16t-66 44t-44 66t-15.5 83z" />
<glyph unicode="&#xcc;" horiz-adv-x="593" d="M-113 1893h408l226 -354h-337zM102 0v1434h390v-1434h-390z" />
<glyph unicode="&#xcd;" horiz-adv-x="593" d="M61 1539l227 354h407l-297 -354h-337zM102 0v1434h390v-1434h-390z" />
<glyph unicode="&#xce;" horiz-adv-x="593" d="M-129 1529l237 354h377l237 -354h-316l-109 139l-110 -139h-316zM102 0v1434h390v-1434h-390z" />
<glyph unicode="&#xcf;" horiz-adv-x="593" d="M-163 1706q0 44 16 82.5t44 66.5t66 44t83 16q44 0 82.5 -16t66.5 -44t44 -66.5t16 -82.5q0 -45 -16 -83t-44 -66t-66.5 -44t-82.5 -16q-45 0 -83 16t-66 44t-44 66t-16 83zM102 0v1434h390v-1434h-390zM339 1706q0 44 16 82.5t44 66.5t66 44t83 16q44 0 82.5 -16 t66.5 -44t44 -66.5t16 -82.5q0 -45 -16 -83t-44 -66t-66.5 -44t-82.5 -16q-45 0 -83 16t-66 44t-44 66t-16 83z" />
<glyph unicode="&#xd0;" horiz-adv-x="1624" d="M61 561v328h136v545h632q168 0 305.5 -51.5t234.5 -145t150.5 -226t53.5 -294.5t-53.5 -294.5t-150.5 -226.5t-234.5 -145t-305.5 -51h-632v561h-136zM586 357h233q88 0 153.5 27.5t109 75.5t65 113.5t21.5 143.5q0 79 -21.5 145t-65 113.5t-109 74t-153.5 26.5h-233 v-187h305v-328h-305v-204z" />
<glyph unicode="&#xd1;" horiz-adv-x="1563" d="M102 0v1434h379l591 -806v806h389v-1434h-379l-590 806v-806h-390zM357 1720q32 49 68.5 82t76.5 53.5t82.5 29t86.5 8.5q55 0 94.5 -11.5t68.5 -26t50.5 -26t42.5 -11.5q24 0 52 18t58 53l202 -183q-32 -49 -68 -82t-76 -53.5t-82.5 -29t-86.5 -8.5q-55 0 -94.5 11.5 t-69 26t-51 26.5t-41.5 12q-24 0 -52 -18.5t-59 -53.5z" />
<glyph unicode="&#xd2;" horiz-adv-x="1617" d="M51 717q0 161 56 297t157 235.5t240 155t305 55.5t305 -55.5t240 -155t157 -235.5t56 -297t-56 -297t-157 -235.5t-240 -155.5t-305 -56t-305 56t-240 155.5t-157 235.5t-56 297zM399 1893h408l226 -354h-337zM456 717q0 -82 25.5 -150t72.5 -117.5t111.5 -76.5 t143.5 -27q78 0 143 27t112 76.5t72.5 117.5t25.5 150t-25.5 150t-72.5 117t-112 76t-143 27q-79 0 -143.5 -27t-111.5 -76t-72.5 -117t-25.5 -150z" />
<glyph unicode="&#xd3;" horiz-adv-x="1617" d="M51 717q0 161 56 297t157 235.5t240 155t305 55.5t305 -55.5t240 -155t157 -235.5t56 -297t-56 -297t-157 -235.5t-240 -155.5t-305 -56t-305 56t-240 155.5t-157 235.5t-56 297zM456 717q0 -82 25.5 -150t72.5 -117.5t111.5 -76.5t143.5 -27q78 0 143 27t112 76.5 t72.5 117.5t25.5 150t-25.5 150t-72.5 117t-112 76t-143 27q-79 0 -143.5 -27t-111.5 -76t-72.5 -117t-25.5 -150zM573 1539l227 354h407l-297 -354h-337z" />
<glyph unicode="&#xd4;" horiz-adv-x="1617" d="M51 717q0 161 56 297t157 235.5t240 155t305 55.5t305 -55.5t240 -155t157 -235.5t56 -297t-56 -297t-157 -235.5t-240 -155.5t-305 -56t-305 56t-240 155.5t-157 235.5t-56 297zM383 1529l237 354h377l237 -354h-316l-109 139l-110 -139h-316zM456 717q0 -82 25.5 -150 t72.5 -117.5t111.5 -76.5t143.5 -27q78 0 143 27t112 76.5t72.5 117.5t25.5 150t-25.5 150t-72.5 117t-112 76t-143 27q-79 0 -143.5 -27t-111.5 -76t-72.5 -117t-25.5 -150z" />
<glyph unicode="&#xd5;" horiz-adv-x="1617" d="M51 717q0 161 56 297t157 235.5t240 155t305 55.5t305 -55.5t240 -155t157 -235.5t56 -297t-56 -297t-157 -235.5t-240 -155.5t-305 -56t-305 56t-240 155.5t-157 235.5t-56 297zM368 1720q32 49 68 82t76 53.5t82.5 29t86.5 8.5q55 0 94.5 -11.5t68.5 -26t50.5 -26 t42.5 -11.5q24 0 52 18t59 53l201 -183q-32 -49 -68 -82t-76 -53.5t-82.5 -29t-86.5 -8.5q-55 0 -94.5 11.5t-69 26t-51 26.5t-41.5 12q-24 0 -52 -18.5t-59 -53.5zM456 717q0 -82 25.5 -150t72.5 -117.5t111.5 -76.5t143.5 -27q78 0 143 27t112 76.5t72.5 117.5t25.5 150 t-25.5 150t-72.5 117t-112 76t-143 27q-79 0 -143.5 -27t-111.5 -76t-72.5 -117t-25.5 -150z" />
<glyph unicode="&#xd6;" horiz-adv-x="1617" d="M51 717q0 161 56 297t157 235.5t240 155t305 55.5t305 -55.5t240 -155t157 -235.5t56 -297t-56 -297t-157 -235.5t-240 -155.5t-305 -56t-305 56t-240 155.5t-157 235.5t-56 297zM349 1706q0 44 16 82.5t44 66.5t66 44t83 16q44 0 82.5 -16t66.5 -44t44 -66.5t16 -82.5 q0 -45 -16 -83t-44 -66t-66.5 -44t-82.5 -16q-45 0 -83 16t-66 44t-44 66t-16 83zM456 717q0 -82 25.5 -150t72.5 -117.5t111.5 -76.5t143.5 -27q78 0 143 27t112 76.5t72.5 117.5t25.5 150t-25.5 150t-72.5 117t-112 76t-143 27q-79 0 -143.5 -27t-111.5 -76t-72.5 -117 t-25.5 -150zM851 1706q0 44 16 82.5t44 66.5t66 44t83 16q44 0 82.5 -16t66.5 -44t44 -66.5t16 -82.5q0 -45 -16 -83t-44 -66t-66.5 -44t-82.5 -16q-45 0 -83 16t-66 44t-44 66t-16 83z" />
<glyph unicode="&#xd7;" d="M131 814l213 213l272 -272l271 270l209 -209l-271 -270l273 -273l-213 -213l-273 273l-270 -271l-209 209l270 271z" />
<glyph unicode="&#xd8;" horiz-adv-x="1617" d="M51 717q0 161 56 297t157 235.5t240 155t305 55.5q124 0 230 -30.5t196 -87.5l118 118l210 -210l-116 -115q58 -89 89 -193.5t31 -224.5q0 -161 -56 -297t-157 -235.5t-240 -155.5t-305 -56q-118 0 -222.5 28.5t-191.5 81.5l-109 -110l-210 210l103 104q-61 90 -94.5 198 t-33.5 232zM456 717q0 -36 5 -70t14 -64l477 477q-64 27 -143 27t-143.5 -27t-111.5 -76t-72.5 -117t-25.5 -150zM680 368q58 -22 129 -22q78 0 143 27t112 76.5t72.5 117.5t25.5 150q0 32 -4 61t-11 57z" />
<glyph unicode="&#xd9;" horiz-adv-x="1454" d="M92 585v849h390v-838q0 -124 65 -187t180 -63t180 63t65 187v838h390v-849q0 -146 -41.5 -260t-122 -192.5t-198.5 -119t-273 -40.5t-273 40.5t-198.5 119t-122 192t-41.5 260.5zM317 1893h408l226 -354h-337z" />
<glyph unicode="&#xda;" horiz-adv-x="1454" d="M92 585v849h390v-838q0 -124 65 -187t180 -63t180 63t65 187v838h390v-849q0 -146 -41.5 -260t-122 -192.5t-198.5 -119t-273 -40.5t-273 40.5t-198.5 119t-122 192t-41.5 260.5zM492 1539l226 354h407l-297 -354h-336z" />
<glyph unicode="&#xdb;" horiz-adv-x="1454" d="M92 585v849h390v-838q0 -124 65 -187t180 -63t180 63t65 187v838h390v-849q0 -146 -41.5 -260t-122 -192.5t-198.5 -119t-273 -40.5t-273 40.5t-198.5 119t-122 192t-41.5 260.5zM301 1529l237 354h377l237 -354h-316l-109 139l-110 -139h-316z" />
<glyph unicode="&#xdc;" horiz-adv-x="1454" d="M92 585v849h390v-838q0 -124 65 -187t180 -63t180 63t65 187v838h390v-849q0 -146 -41.5 -260t-122 -192.5t-198.5 -119t-273 -40.5t-273 40.5t-198.5 119t-122 192t-41.5 260.5zM267 1706q0 44 16 82.5t44 66.5t66 44t83 16q44 0 82.5 -16t66.5 -44t44 -66.5t16 -82.5 q0 -45 -16 -83t-44 -66t-66.5 -44t-82.5 -16q-45 0 -83 16t-66 44t-44 66t-16 83zM769 1706q0 44 16 82.5t44 66.5t66 44t83 16q44 0 82.5 -16t66.5 -44t44 -66.5t16 -82.5q0 -45 -16 -83t-44 -66t-66.5 -44t-82.5 -16q-45 0 -83 16t-66 44t-44 66t-16 83z" />
<glyph unicode="&#xdd;" horiz-adv-x="1462" d="M2 1434h447l289 -542l289 542h433l-528 -891v-543h-389v538zM503 1539l226 354h408l-297 -354h-337z" />
<glyph unicode="&#xde;" horiz-adv-x="1345" d="M102 0v1434h390v-208h249q136 0 240.5 -36t174.5 -101.5t105.5 -156.5t35.5 -202q0 -109 -35 -198.5t-105 -153.5t-172.5 -99t-238.5 -35h-254v-244h-390zM492 585h245q36 0 67 9.5t53 28t34.5 45.5t12.5 62t-12.5 62t-34.5 46t-53 29t-67 10h-245v-292z" />
<glyph unicode="&#xdf;" horiz-adv-x="1251" d="M85 0v993q0 61 10.5 123.5t36 118.5t66.5 105t101 84.5t141 56t187 20.5q139 0 241 -38t169 -99.5t99.5 -141t32.5 -163.5q0 -63 -13 -115.5t-37.5 -93.5t-58.5 -71.5t-74 -51.5q47 -18 87.5 -50t70.5 -74.5t47 -93t17 -106.5q0 -95 -32 -174t-95 -136t-155 -88.5 t-211 -31.5q-52 0 -99.5 5.5t-86.5 17.5l28 291q51 -14 102 -15q39 0 72 11t56 30t36 46t13 60q0 80 -50 117.5t-143 37.5h-53v299h27q179 0 180 152q0 30 -12 56.5t-35 47t-56.5 32t-75.5 11.5q-85 0 -126.5 -51.5t-41.5 -136.5v-984h-365z" />
<glyph unicode="&#xe0;" horiz-adv-x="1220" d="M43 509q0 110 34 207t95 169.5t146 114.5t188 42q96 0 162.5 -33t112.5 -85v91h351v-1015h-351v89q-46 -52 -113 -84t-163 -32q-101 0 -186.5 42t-146.5 115.5t-95 170.5t-34 208zM227 1484h408l226 -355h-337zM419 508q0 -43 13 -79t37.5 -62t57.5 -40.5t72 -14.5 t72.5 14.5t57.5 40.5t37 62t13 79t-13 79t-37 62t-57.5 40t-72.5 14t-72 -14t-57.5 -40t-37.5 -62t-13 -79z" />
<glyph unicode="&#xe1;" horiz-adv-x="1220" d="M43 509q0 110 34 207t95 169.5t146 114.5t188 42q96 0 162.5 -33t112.5 -85v91h351v-1015h-351v89q-46 -52 -113 -84t-163 -32q-101 0 -186.5 42t-146.5 115.5t-95 170.5t-34 208zM402 1129l227 355h407l-297 -355h-337zM419 508q0 -43 13 -79t37.5 -62t57.5 -40.5 t72 -14.5t72.5 14.5t57.5 40.5t37 62t13 79t-13 79t-37 62t-57.5 40t-72.5 14t-72 -14t-57.5 -40t-37.5 -62t-13 -79z" />
<glyph unicode="&#xe2;" horiz-adv-x="1220" d="M43 509q0 110 34 207t95 169.5t146 114.5t188 42q96 0 162.5 -33t112.5 -85v91h351v-1015h-351v89q-46 -52 -113 -84t-163 -32q-101 0 -186.5 42t-146.5 115.5t-95 170.5t-34 208zM199 1119l236 355h378l237 -355h-317l-108 139l-110 -139h-316zM419 508q0 -43 13 -79 t37.5 -62t57.5 -40.5t72 -14.5t72.5 14.5t57.5 40.5t37 62t13 79t-13 79t-37 62t-57.5 40t-72.5 14t-72 -14t-57.5 -40t-37.5 -62t-13 -79z" />
<glyph unicode="&#xe3;" horiz-adv-x="1220" d="M43 509q0 110 34 207t95 169.5t146 114.5t188 42q96 0 162.5 -33t112.5 -85v91h351v-1015h-351v89q-46 -52 -113 -84t-163 -32q-101 0 -186.5 42t-146.5 115.5t-95 170.5t-34 208zM175 1311q32 49 68.5 81.5t76 53t82 29.5t86.5 9q55 0 95 -12t69 -26t50.5 -26t41.5 -12 q24 0 52 18.5t59 53.5l202 -184q-32 -49 -68.5 -81.5t-76.5 -53t-82.5 -29.5t-86.5 -9q-55 0 -94.5 12t-68.5 26.5t-50.5 26t-42.5 11.5q-24 0 -51.5 -18.5t-58.5 -53.5zM419 508q0 -43 13 -79t37.5 -62t57.5 -40.5t72 -14.5t72.5 14.5t57.5 40.5t37 62t13 79t-13 79t-37 62 t-57.5 40t-72.5 14t-72 -14t-57.5 -40t-37.5 -62t-13 -79z" />
<glyph unicode="&#xe4;" horiz-adv-x="1220" d="M43 509q0 110 34 207t95 169.5t146 114.5t188 42q96 0 162.5 -33t112.5 -85v91h351v-1015h-351v89q-46 -52 -113 -84t-163 -32q-101 0 -186.5 42t-146.5 115.5t-95 170.5t-34 208zM161 1296q0 44 16 82.5t44 67t66 44t83 15.5q44 0 82 -15.5t66.5 -44t44.5 -67t16 -82.5 q0 -45 -16 -82.5t-44.5 -66t-66.5 -44.5t-82 -16q-45 0 -83 16t-66 44.5t-44 66t-16 82.5zM419 508q0 -43 13 -79t37.5 -62t57.5 -40.5t72 -14.5t72.5 14.5t57.5 40.5t37 62t13 79t-13 79t-37 62t-57.5 40t-72.5 14t-72 -14t-57.5 -40t-37.5 -62t-13 -79zM663 1296 q0 44 15.5 82.5t44 67t66 44t82.5 15.5q44 0 82.5 -15.5t67 -44t44 -67t15.5 -82.5q0 -45 -15.5 -82.5t-44 -66t-67 -44.5t-82.5 -16q-45 0 -82.5 16t-66 44.5t-44 66t-15.5 82.5z" />
<glyph unicode="&#xe5;" horiz-adv-x="1220" d="M43 509q0 110 34 207t95 169.5t146 114.5t188 42q96 0 162.5 -33t112.5 -85v91h351v-1015h-351v89q-46 -52 -113 -84t-163 -32q-101 0 -186.5 42t-146.5 115.5t-95 170.5t-34 208zM330 1377q0 59 23 112.5t63 92.5t93.5 62t114.5 23t115 -23t93.5 -62t63 -92t23.5 -113 t-23.5 -113t-63 -92t-93.5 -62t-115 -23q-60 0 -114 23t-94 62t-63 92t-23 113zM419 508q0 -43 13 -79t37.5 -62t57.5 -40.5t72 -14.5t72.5 14.5t57.5 40.5t37 62t13 79t-13 79t-37 62t-57.5 40t-72.5 14t-72 -14t-57.5 -40t-37.5 -62t-13 -79zM522 1377q0 -23 8.5 -41.5 t22 -32.5t32.5 -22t39 -8t39 8t33 22t22 33t8 41t-8 41.5t-22 33t-33 22t-39 8.5t-39 -8.5t-32.5 -22t-22 -33t-8.5 -41.5z" />
<glyph unicode="&#xe6;" horiz-adv-x="1759" d="M43 292q0 152 117.5 235t343.5 83h163q-10 58 -51 88t-115 30q-34 0 -72.5 -6.5t-76 -17.5t-71 -24.5t-59.5 -28.5l-114 284q28 17 74 36t105 35t127 26t140 10q122 0 201 -34t123 -83q61 61 146 89t196 28q113 0 204.5 -38.5t156.5 -109t100 -168.5t35 -218 q0 -13 -0.5 -28.5t-1.5 -31t-2.5 -28.5t-2.5 -21h-662q37 -123 182 -123q49 0 98.5 20.5t92.5 61.5l250 -208q-77 -80 -196 -128.5t-275 -48.5q-121 0 -217.5 33t-167.5 100q-26 -24 -59 -47t-77 -42.5t-100.5 -31.5t-127.5 -12q-92 0 -167.5 21.5t-128.5 62.5t-82 100 t-29 135zM411 319q0 -36 28 -56t80 -20q62 0 105 23t69 49q-5 19 -9 40t-7 42h-119q-71 0 -109 -20.5t-38 -57.5zM1044 609h312q-18 66 -58.5 96.5t-98.5 30.5q-26 0 -50 -5.5t-44 -19.5t-35.5 -39t-25.5 -63z" />
<glyph unicode="&#xe7;" horiz-adv-x="1068" d="M43 508q0 118 41 216t114 169t174.5 110t223.5 39q154 0 266.5 -65.5t189.5 -179.5l-299 -189q-33 49 -71.5 72t-93.5 23q-34 0 -64.5 -12.5t-55 -37t-38.5 -61.5t-14 -84q0 -48 13.5 -84.5t37 -61t54 -37.5t64.5 -13q103 0 168 97l300 -192q-75 -114 -189 -179t-268 -65 q-122 0 -223.5 39.5t-174.5 110.5t-114 169t-41 216zM314 -329l114 336h315l-105 -336h-324z" />
<glyph unicode="&#xe8;" horiz-adv-x="1132" d="M43 499q0 121 38.5 220.5t108 171.5t166.5 111.5t214 39.5q115 0 211 -38.5t164.5 -109.5t106.5 -169t38 -217q0 -13 -0.5 -28.5t-2 -31t-3 -28.5t-2.5 -21h-662q37 -123 182 -123q49 0 99 20.5t93 61.5l249 -208q-74 -80 -190 -128.5t-268 -48.5q-122 0 -222 38 t-171 107t-110 166t-39 215zM173 1484h408l226 -355h-337zM421 620h305q-39 116 -154 116q-117 0 -151 -116z" />
<glyph unicode="&#xe9;" horiz-adv-x="1132" d="M43 499q0 121 38.5 220.5t108 171.5t166.5 111.5t214 39.5q115 0 211 -38.5t164.5 -109.5t106.5 -169t38 -217q0 -13 -0.5 -28.5t-2 -31t-3 -28.5t-2.5 -21h-662q37 -123 182 -123q49 0 99 20.5t93 61.5l249 -208q-74 -80 -190 -128.5t-268 -48.5q-122 0 -222 38 t-171 107t-110 166t-39 215zM348 1129l226 355h408l-297 -355h-337zM421 620h305q-39 116 -154 116q-117 0 -151 -116z" />
<glyph unicode="&#xea;" horiz-adv-x="1132" d="M43 499q0 121 38.5 220.5t108 171.5t166.5 111.5t214 39.5q115 0 211 -38.5t164.5 -109.5t106.5 -169t38 -217q0 -13 -0.5 -28.5t-2 -31t-3 -28.5t-2.5 -21h-662q37 -123 182 -123q49 0 99 20.5t93 61.5l249 -208q-74 -80 -190 -128.5t-268 -48.5q-122 0 -222 38 t-171 107t-110 166t-39 215zM144 1119l237 355h378l236 -355h-316l-109 139l-109 -139h-317zM421 620h305q-39 116 -154 116q-117 0 -151 -116z" />
<glyph unicode="&#xeb;" horiz-adv-x="1132" d="M43 499q0 121 38.5 220.5t108 171.5t166.5 111.5t214 39.5q115 0 211 -38.5t164.5 -109.5t106.5 -169t38 -217q0 -13 -0.5 -28.5t-2 -31t-3 -28.5t-2.5 -21h-662q37 -123 182 -123q49 0 99 20.5t93 61.5l249 -208q-74 -80 -190 -128.5t-268 -48.5q-122 0 -222 38 t-171 107t-110 166t-39 215zM106 1296q0 44 16 82.5t44.5 67t66 44t82.5 15.5q44 0 82.5 -15.5t67 -44t44 -67t15.5 -82.5q0 -45 -15.5 -82.5t-44 -66t-67 -44.5t-82.5 -16q-45 0 -82.5 16t-66 44.5t-44.5 66t-16 82.5zM421 620h305q-39 116 -154 116q-117 0 -151 -116z M608 1296q0 44 16 82.5t44 67t66 44t83 15.5q44 0 82.5 -15.5t66.5 -44t44 -67t16 -82.5q0 -45 -16 -82.5t-44 -66t-66.5 -44.5t-82.5 -16q-45 0 -83 16t-66 44.5t-44 66t-16 82.5z" />
<glyph unicode="&#xec;" horiz-adv-x="542" d="M-127 1484h408l226 -355h-337zM89 0v1015h365v-1015h-365z" />
<glyph unicode="&#xed;" horiz-adv-x="542" d="M48 1129l226 355h408l-297 -355h-337zM89 0v1015h365v-1015h-365z" />
<glyph unicode="&#xee;" horiz-adv-x="542" d="M-156 1119l237 355h378l236 -355h-316l-109 139l-109 -139h-317zM89 0v1015h365v-1015h-365z" />
<glyph unicode="&#xef;" horiz-adv-x="542" d="M-194 1296q0 44 16 82.5t44.5 67t66 44t82.5 15.5q44 0 82.5 -15.5t67 -44t44 -67t15.5 -82.5q0 -45 -15.5 -82.5t-44 -66t-67 -44.5t-82.5 -16q-45 0 -82.5 16t-66 44.5t-44.5 66t-16 82.5zM89 0v1015h365v-1015h-365zM308 1296q0 44 16 82.5t44 67t66 44t83 15.5 q44 0 82.5 -15.5t66.5 -44t44 -67t16 -82.5q0 -45 -16 -82.5t-44 -66t-66.5 -44.5t-82.5 -16q-45 0 -83 16t-66 44.5t-44 66t-16 82.5z" />
<glyph unicode="&#xf0;" horiz-adv-x="1182" d="M43 461q0 103 35.5 190.5t98 151t147 99.5t182.5 36q117 0 202 -50q-30 55 -68 99.5t-84 82.5l-206 -128l-107 167l135 84q-35 20 -70 39.5t-68 40.5l226 222q56 -26 109 -57t104 -68l179 113l108 -167l-130 -81q67 -68 122.5 -147.5t96 -170.5t63 -192t22.5 -211 q0 -117 -39.5 -216t-112 -171.5t-174.5 -113t-229 -40.5q-116 0 -215 37t-171.5 102t-114 154.5t-41.5 194.5zM416 461q0 -39 13 -72t37 -56.5t57.5 -36.5t72.5 -13t72 13t57.5 36.5t37.5 56.5t13 72q0 38 -13 70.5t-37.5 56t-57.5 37t-72 13.5t-72.5 -13.5t-57.5 -37 t-37 -56t-13 -70.5z" />
<glyph unicode="&#xf1;" horiz-adv-x="1157" d="M89 0v1015h347v-105q87 132 275 132q79 0 145.5 -26.5t114.5 -76.5t75 -120.5t27 -158.5v-660h-364v546q0 77 -33.5 116t-94.5 39q-54 0 -90.5 -37.5t-36.5 -119.5v-544h-365zM138 1311q32 49 68.5 81.5t76.5 53t82.5 29.5t86.5 9q55 0 94.5 -12t68.5 -26t50.5 -26 t42.5 -12q24 0 51.5 18.5t58.5 53.5l202 -184q-32 -49 -68.5 -81.5t-76 -53t-82 -29.5t-86.5 -9q-55 0 -95 12t-69 26.5t-50.5 26t-41.5 11.5q-24 0 -52 -18.5t-59 -53.5z" />
<glyph unicode="&#xf2;" horiz-adv-x="1191" d="M43 508q0 116 41.5 213.5t115 169.5t175 111.5t221.5 39.5t221.5 -39.5t175 -111.5t115 -169.5t41.5 -213.5t-41.5 -213.5t-115 -169.5t-175 -112t-221.5 -40t-221.5 40t-175 112t-115 169.5t-41.5 213.5zM199 1484h407l227 -355h-337zM416 508q0 -43 13 -79t37 -62 t57.5 -40.5t72.5 -14.5t72 14.5t57.5 40.5t37.5 62t13 79t-13 79t-37.5 62t-57.5 40t-72 14t-72.5 -14t-57.5 -40t-37 -62t-13 -79z" />
<glyph unicode="&#xf3;" horiz-adv-x="1191" d="M43 508q0 116 41.5 213.5t115 169.5t175 111.5t221.5 39.5t221.5 -39.5t175 -111.5t115 -169.5t41.5 -213.5t-41.5 -213.5t-115 -169.5t-175 -112t-221.5 -40t-221.5 40t-175 112t-115 169.5t-41.5 213.5zM374 1129l226 355h408l-297 -355h-337zM416 508q0 -43 13 -79 t37 -62t57.5 -40.5t72.5 -14.5t72 14.5t57.5 40.5t37.5 62t13 79t-13 79t-37.5 62t-57.5 40t-72 14t-72.5 -14t-57.5 -40t-37 -62t-13 -79z" />
<glyph unicode="&#xf4;" horiz-adv-x="1191" d="M43 508q0 116 41.5 213.5t115 169.5t175 111.5t221.5 39.5t221.5 -39.5t175 -111.5t115 -169.5t41.5 -213.5t-41.5 -213.5t-115 -169.5t-175 -112t-221.5 -40t-221.5 40t-175 112t-115 169.5t-41.5 213.5zM170 1119l237 355h377l237 -355h-316l-109 139l-110 -139h-316z M416 508q0 -43 13 -79t37 -62t57.5 -40.5t72.5 -14.5t72 14.5t57.5 40.5t37.5 62t13 79t-13 79t-37.5 62t-57.5 40t-72 14t-72.5 -14t-57.5 -40t-37 -62t-13 -79z" />
<glyph unicode="&#xf5;" horiz-adv-x="1191" d="M43 508q0 116 41.5 213.5t115 169.5t175 111.5t221.5 39.5t221.5 -39.5t175 -111.5t115 -169.5t41.5 -213.5t-41.5 -213.5t-115 -169.5t-175 -112t-221.5 -40t-221.5 40t-175 112t-115 169.5t-41.5 213.5zM146 1311q32 49 68.5 81.5t76.5 53t82.5 29.5t86.5 9 q55 0 94.5 -12t68.5 -26t50.5 -26t42.5 -12q24 0 52 18.5t58 53.5l202 -184q-32 -49 -68 -81.5t-76 -53t-82.5 -29.5t-86.5 -9q-55 0 -94.5 12t-69 26.5t-51 26t-41.5 11.5q-24 0 -52 -18.5t-59 -53.5zM416 508q0 -43 13 -79t37 -62t57.5 -40.5t72.5 -14.5t72 14.5 t57.5 40.5t37.5 62t13 79t-13 79t-37.5 62t-57.5 40t-72 14t-72.5 -14t-57.5 -40t-37 -62t-13 -79z" />
<glyph unicode="&#xf6;" horiz-adv-x="1191" d="M43 508q0 116 41.5 213.5t115 169.5t175 111.5t221.5 39.5t221.5 -39.5t175 -111.5t115 -169.5t41.5 -213.5t-41.5 -213.5t-115 -169.5t-175 -112t-221.5 -40t-221.5 40t-175 112t-115 169.5t-41.5 213.5zM132 1296q0 44 16 82.5t44 67t66 44t83 15.5q44 0 82.5 -15.5 t66.5 -44t44 -67t16 -82.5q0 -45 -16 -82.5t-44 -66t-66.5 -44.5t-82.5 -16q-45 0 -83 16t-66 44.5t-44 66t-16 82.5zM416 508q0 -43 13 -79t37 -62t57.5 -40.5t72.5 -14.5t72 14.5t57.5 40.5t37.5 62t13 79t-13 79t-37.5 62t-57.5 40t-72 14t-72.5 -14t-57.5 -40t-37 -62 t-13 -79zM634 1296q0 44 16 82.5t44 67t66 44t83 15.5q44 0 82.5 -15.5t66.5 -44t44 -67t16 -82.5q0 -45 -16 -82.5t-44 -66t-66.5 -44.5t-82.5 -16q-45 0 -83 16t-66 44.5t-44 66t-16 82.5z" />
<glyph unicode="&#xf8;" horiz-adv-x="1191" d="M26 132l94 94q-37 61 -57 131.5t-20 150.5q0 116 41.5 213.5t115 169.5t175 111.5t221.5 39.5q77 0 145 -16.5t129 -48.5l102 101l198 -194l-96 -97q36 -61 55.5 -130t19.5 -149q0 -116 -41.5 -213.5t-115 -169.5t-175 -112t-221.5 -40q-77 0 -145 16.5t-127 47.5 l-100 -99zM398 508q0 -9 0.5 -18.5t1.5 -17.5l244 244q-11 2 -23.5 4t-24.5 2q-43 0 -79 -16t-62.5 -44.5t-41.5 -68t-15 -85.5zM551 299q11 -2 22 -3.5t23 -1.5q43 0 79 16t62.5 44.5t41.5 68t15 85.5q0 8 -0.5 15.5t-1.5 16.5z" />
<glyph unicode="&#xf9;" horiz-adv-x="1163" d="M84 437v578h365v-547q0 -77 35.5 -116.5t97.5 -39.5q61 0 97 39.5t36 116.5v547h364v-579q0 -119 -37.5 -206t-104.5 -143.5t-158 -85t-197 -28.5t-197.5 28.5t-158 85.5t-104.5 144t-38 206zM184 1484h408l226 -355h-337z" />
<glyph unicode="&#xfa;" horiz-adv-x="1163" d="M84 437v578h365v-547q0 -77 35.5 -116.5t97.5 -39.5q61 0 97 39.5t36 116.5v547h364v-579q0 -119 -37.5 -206t-104.5 -143.5t-158 -85t-197 -28.5t-197.5 28.5t-158 85.5t-104.5 144t-38 206zM359 1129l227 355h407l-297 -355h-337z" />
<glyph unicode="&#xfb;" horiz-adv-x="1163" d="M84 437v578h365v-547q0 -77 35.5 -116.5t97.5 -39.5q61 0 97 39.5t36 116.5v547h364v-579q0 -119 -37.5 -206t-104.5 -143.5t-158 -85t-197 -28.5t-197.5 28.5t-158 85.5t-104.5 144t-38 206zM156 1119l236 355h378l237 -355h-317l-108 139l-110 -139h-316z" />
<glyph unicode="&#xfc;" horiz-adv-x="1163" d="M84 437v578h365v-547q0 -77 35.5 -116.5t97.5 -39.5q61 0 97 39.5t36 116.5v547h364v-579q0 -119 -37.5 -206t-104.5 -143.5t-158 -85t-197 -28.5t-197.5 28.5t-158 85.5t-104.5 144t-38 206zM118 1296q0 44 16 82.5t44 67t66 44t83 15.5q44 0 82 -15.5t66.5 -44 t44.5 -67t16 -82.5q0 -45 -16 -82.5t-44.5 -66t-66.5 -44.5t-82 -16q-45 0 -83 16t-66 44.5t-44 66t-16 82.5zM620 1296q0 44 15.5 82.5t44 67t66 44t82.5 15.5q44 0 82.5 -15.5t67 -44t44 -67t15.5 -82.5q0 -45 -15.5 -82.5t-44 -66t-67 -44.5t-82.5 -16q-45 0 -82.5 16 t-66 44.5t-44 66t-15.5 82.5z" />
<glyph unicode="&#xfd;" horiz-adv-x="1213" d="M6 1015h421l191 -400l191 400h399l-728 -1425h-398l342 639zM396 1129l227 355h407l-297 -355h-337z" />
<glyph unicode="&#xfe;" horiz-adv-x="1219" d="M89 -410v1885h365v-534q46 46 108.5 73.5t151.5 27.5q102 0 187 -42t146.5 -114.5t95.5 -170t34 -206.5q0 -111 -34 -208t-95.5 -170.5t-146.5 -115.5t-186 -42q-90 0 -152.5 27t-108.5 73v-483h-365zM440 508q0 -43 13.5 -79t37.5 -62t57.5 -40.5t72.5 -14.5t72 14.5 t57 40.5t37.5 62t13.5 79t-13.5 79t-37.5 62t-57 40t-72 14t-72.5 -14t-57.5 -40t-37.5 -62t-13.5 -79z" />
<glyph unicode="&#xff;" horiz-adv-x="1213" d="M6 1015h421l191 -400l191 400h399l-728 -1425h-398l342 639zM155 1296q0 44 15.5 82.5t44 67t66.5 44t83 15.5q44 0 82 -15.5t66.5 -44t44 -67t15.5 -82.5q0 -45 -15.5 -82.5t-44 -66t-66.5 -44.5t-82 -16q-45 0 -83 16t-66.5 44.5t-44 66t-15.5 82.5zM656 1296 q0 44 16 82.5t44 67t66 44t83 15.5q44 0 82.5 -15.5t66.5 -44t44 -67t16 -82.5q0 -45 -16 -82.5t-44 -66t-66.5 -44.5t-82.5 -16q-45 0 -83 16t-66 44.5t-44 66t-16 82.5z" />
<glyph unicode="&#x152;" horiz-adv-x="2205" d="M51 717q0 162 53.5 294.5t150.5 226t234.5 145t305.5 51.5h1329v-347h-731v-189h680v-346h-680v-206h731v-346h-1329q-168 0 -305.5 51t-234.5 145t-150.5 226.5t-53.5 294.5zM456 717q0 -79 21.5 -145t65 -113.5t109 -74.5t153.5 -27h199v719h-199q-88 0 -153.5 -27 t-109 -75t-65 -113.5t-21.5 -143.5z" />
<glyph unicode="&#x153;" horiz-adv-x="1865" d="M43 508q0 116 41.5 213.5t115 169.5t175 111.5t221.5 39.5q109 0 199.5 -36t158.5 -101q66 68 154 103t196 35q115 0 210.5 -38.5t164 -109.5t106.5 -169t38 -218q0 -13 -0.5 -28.5t-1.5 -31t-2.5 -28.5t-2.5 -21h-663q37 -123 182 -123q49 0 99 20.5t93 61.5l250 -208 q-77 -80 -196.5 -128.5t-274.5 -48.5q-109 0 -197.5 36t-154.5 102q-69 -66 -159 -102t-199 -36q-120 0 -221.5 40t-175 112t-115 169.5t-41.5 213.5zM416 508q0 -43 13 -79t37 -62t57.5 -40.5t72.5 -14.5t72 14.5t57.5 40.5t37.5 62t13 79t-13 79t-37.5 62t-57.5 40t-72 14 t-72.5 -14t-57.5 -40t-37 -62t-13 -79zM1154 620h305q-38 116 -153 116q-117 0 -152 -116z" />
<glyph unicode="&#x178;" horiz-adv-x="1462" d="M2 1434h447l289 -542l289 542h433l-528 -891v-543h-389v538zM279 1706q0 44 15.5 82.5t44 66.5t66 44t82.5 16q44 0 82.5 -16t67 -44t44 -66.5t15.5 -82.5q0 -45 -15.5 -83t-44 -66t-67 -44t-82.5 -16q-45 0 -82.5 16t-66 44t-44 66t-15.5 83zM780 1706q0 44 16 82.5 t44 66.5t66 44t83 16q44 0 82.5 -16t66.5 -44t44 -66.5t16 -82.5q0 -45 -16 -83t-44 -66t-66.5 -44t-82.5 -16q-45 0 -83 16t-66 44t-44 66t-16 83z" />
<glyph unicode="&#x2000;" horiz-adv-x="1038" />
<glyph unicode="&#x2001;" horiz-adv-x="2077" />
<glyph unicode="&#x2002;" horiz-adv-x="1038" />
<glyph unicode="&#x2003;" horiz-adv-x="2077" />
<glyph unicode="&#x2004;" horiz-adv-x="692" />
<glyph unicode="&#x2005;" horiz-adv-x="519" />
<glyph unicode="&#x2006;" horiz-adv-x="346" />
<glyph unicode="&#x2007;" horiz-adv-x="346" />
<glyph unicode="&#x2008;" horiz-adv-x="259" />
<glyph unicode="&#x2009;" horiz-adv-x="415" />
<glyph unicode="&#x200a;" horiz-adv-x="115" />
<glyph unicode="&#x2010;" horiz-adv-x="768" d="M72 390v307h624v-307h-624z" />
<glyph unicode="&#x2011;" horiz-adv-x="768" d="M72 390v307h624v-307h-624z" />
<glyph unicode="&#x2012;" horiz-adv-x="768" d="M72 390v307h624v-307h-624z" />
<glyph unicode="&#x2013;" horiz-adv-x="1146" d="M61 397v293h1024v-293h-1024z" />
<glyph unicode="&#x2014;" horiz-adv-x="1597" d="M31 397v293h1536v-293h-1536z" />
<glyph unicode="&#x2018;" horiz-adv-x="604" d="M66 764l181 711h301l-90 -711h-392z" />
<glyph unicode="&#x2019;" horiz-adv-x="604" d="M56 764l90 711h393l-182 -711h-301z" />
<glyph unicode="&#x201a;" horiz-adv-x="604" d="M56 -299l90 711h393l-182 -711h-301z" />
<glyph unicode="&#x201c;" horiz-adv-x="1131" d="M66 764l181 711h301l-90 -711h-392zM593 764l181 711h301l-90 -711h-392z" />
<glyph unicode="&#x201d;" horiz-adv-x="1131" d="M56 764l90 711h393l-182 -711h-301zM584 764l90 711h392l-181 -711h-301z" />
<glyph unicode="&#x201e;" horiz-adv-x="1131" d="M56 -299l90 711h393l-182 -711h-301zM584 -299l90 711h392l-181 -711h-301z" />
<glyph unicode="&#x2022;" horiz-adv-x="975" d="M108 543q0 79 29.5 148t81 120.5t120.5 81.5t148 30q78 0 148 -30t121.5 -81.5t81.5 -120.5t30 -148t-30 -148.5t-81.5 -121.5t-121.5 -81.5t-148 -29.5q-79 0 -148 29.5t-120.5 81.5t-81 121.5t-29.5 148.5z" />
<glyph unicode="&#x2026;" horiz-adv-x="1762" d="M72 211q0 47 19 89.5t51.5 75t75.5 51t91 18.5q47 0 89.5 -18.5t75 -51t51.5 -75t19 -89.5q0 -48 -19 -91t-51.5 -76t-75 -52t-89.5 -19q-48 0 -91 19t-75.5 52t-51.5 76t-19 91zM645 211q0 47 19 89.5t52 75t76 51t91 18.5q47 0 89.5 -18.5t74.5 -51t51 -75t19 -89.5 q0 -48 -19 -91t-51 -76t-74.5 -52t-89.5 -19q-48 0 -91 19t-76 52t-52 76t-19 91zM1219 211q0 47 18.5 89.5t51.5 75t76 51t91 18.5q47 0 89.5 -18.5t75 -51t51.5 -75t19 -89.5q0 -48 -19 -91t-51.5 -76t-75 -52t-89.5 -19q-48 0 -91 19t-76 52t-51.5 76t-18.5 91z" />
<glyph unicode="&#x202f;" horiz-adv-x="415" />
<glyph unicode="&#x2039;" horiz-adv-x="655" d="M56 544l205 421h344l-205 -421l205 -421h-344z" />
<glyph unicode="&#x203a;" horiz-adv-x="655" d="M50 123l205 421l-205 421h344l205 -421l-205 -421h-344z" />
<glyph unicode="&#x205f;" horiz-adv-x="519" />
<glyph unicode="&#x20ac;" horiz-adv-x="1433" d="M80 456v213h129q-1 5 -1 11v12v48v12.5t1 12.5h-129v213h164q34 115 98 204.5t152 151.5t197.5 94t234.5 32q121 0 228.5 -34t200.5 -105l-176 -289q-52 44 -117 68t-142 24q-84 0 -153.5 -38.5t-115.5 -107.5h420v-213h-489q-1 -6 -1 -12.5v-12.5v-23q0 -12 0.5 -24.5 t1.5 -23.5h488v-213h-418q49 -74 118.5 -110.5t149.5 -36.5t145.5 24.5t114.5 65.5l172 -290q-87 -65 -192.5 -100.5t-234.5 -35.5q-125 0 -234.5 32.5t-197.5 94.5t-152 151.5t-98 204.5h-164z" />
<glyph unicode="&#x2122;" horiz-adv-x="1735" d="M41 1222v212h655v-212h-211v-464h-233v464h-211zM781 758v676h320l137 -355l135 355h322v-676h-237v381l-110 -323h-220l-115 328v-386h-232z" />
<glyph unicode="&#x25fc;" horiz-adv-x="1013" d="M0 0v1014h1014v-1014h-1014z" />
<glyph unicode="&#xfb01;" horiz-adv-x="1422" d="M27 693v322h163v40q0 114 30.5 197.5t84 139t128 82.5t162.5 27q66 0 120 -9.5t98.5 -25.5t81 -38t67.5 -47l-166 -260q-35 16 -68 28.5t-78 12.5q-49 0 -72 -27t-23 -89v-31h258v-322h-258v-693h-365v693h-163zM941 1312q0 44 16 82.5t44 66.5t66 44t83 16 q44 0 82.5 -16t66.5 -44t44 -66.5t16 -82.5q0 -45 -16 -83t-44 -66t-66.5 -44t-82.5 -16q-45 0 -83 16t-66 44t-44 66t-16 83zM969 0v1015h364v-1015h-364z" />
<glyph unicode="&#xfb02;" horiz-adv-x="1422" d="M27 693v322h163v40q0 114 30.5 197.5t84 139t128 82.5t162.5 27q66 0 120 -9.5t98.5 -25.5t81 -38t67.5 -47l-166 -260q-35 16 -68 28.5t-78 12.5q-49 0 -72 -27t-23 -89v-31h258v-322h-258v-693h-365v693h-163zM969 0v1475h364v-1475h-364z" />
<glyph unicode="&#xfb03;" horiz-adv-x="2271" d="M27 693v322h163v40q0 114 30.5 197.5t84 139t128 82.5t162.5 27q66 0 120 -9.5t98.5 -25.5t81 -38t67.5 -47l-166 -260q-35 16 -68 28.5t-78 12.5q-49 0 -72 -27t-23 -89v-31h258v-322h-258v-693h-365v693h-163zM876 693v322h163v40q0 114 30.5 197.5t84 139t128 82.5 t162.5 27q66 0 120 -9.5t98.5 -25.5t81 -38t66.5 -47l-165 -260q-35 16 -68 28.5t-78 12.5q-49 0 -72 -27t-23 -89v-31h258v-322h-258v-693h-365v693h-163zM1790 1312q0 44 16 82.5t44 66.5t66 44t83 16q44 0 82.5 -16t66.5 -44t44 -66.5t16 -82.5q0 -45 -16 -83t-44 -66 t-66.5 -44t-82.5 -16q-45 0 -83 16t-66 44t-44 66t-16 83zM1818 0v1015h364v-1015h-364z" />
<glyph unicode="&#xfb04;" horiz-adv-x="2271" d="M27 693v322h163v40q0 114 30.5 197.5t84 139t128 82.5t162.5 27q66 0 120 -9.5t98.5 -25.5t81 -38t67.5 -47l-166 -260q-35 16 -68 28.5t-78 12.5q-49 0 -72 -27t-23 -89v-31h258v-322h-258v-693h-365v693h-163zM876 693v322h163v40q0 114 30.5 197.5t84 139t128 82.5 t162.5 27q66 0 120 -9.5t98.5 -25.5t81 -38t66.5 -47l-165 -260q-35 16 -68 28.5t-78 12.5q-49 0 -72 -27t-23 -89v-31h258v-322h-258v-693h-365v693h-163zM1818 0v1475h364v-1475h-364z" />
</font>
</defs>
</svg>
